<svg width="29" height="22" viewBox="0 0 29 22" fill="none" xmlns="http://www.w3.org/2000/svg">
<path d="M25.0163 13.0958H1.47155C0.659252 13.0958 0 12.1569 0 11C0 9.84311 0.659252 8.90418 1.47155 8.90418H25.0163C25.8286 8.90418 26.4878 9.84311 26.4878 11C26.4878 12.1569 25.8286 13.0958 25.0163 13.0958Z" fill="#151C36"/>
<path d="M25.4926 12.1748L16.784 3.4927C15.9833 2.69448 15.9833 1.39687 16.784 0.59866C17.5846 -0.199553 18.8862 -0.199553 19.6868 0.59866L28.3995 9.28077C29.2002 10.079 29.2002 11.3766 28.3995 12.1748C27.5948 12.9771 26.2973 12.9771 25.4926 12.1748Z" fill="#151C36"/>
<path d="M16.784 18.5073L25.4926 9.82519C26.2932 9.02698 27.5948 9.02698 28.3954 9.82519C29.1961 10.6234 29.1961 11.921 28.3954 12.7192L19.6868 21.4013C18.8862 22.1996 17.5846 22.1996 16.784 21.4013C15.9833 20.6031 15.9833 19.3055 16.784 18.5073Z" fill="#151C36"/>
</svg>
