<svg width="20" height="21" viewBox="0 0 20 21" fill="none" xmlns="http://www.w3.org/2000/svg">
<path d="M2.96438 17.12C-0.997246 13.1584 -0.986704 6.72574 2.98757 2.75146L17.335 17.0989C13.3586 21.0711 6.92601 21.0816 2.96438 17.12Z" fill="#4AD6FD"/>
<path d="M4.74601 15.0641L5.0201 15.3382C5.77489 16.093 5.77278 17.318 5.01588 18.0749L3.91953 19.1712C3.16262 19.9281 1.93766 19.9302 1.18286 19.1755L0.908776 18.9014C0.15398 18.1466 0.156088 16.9216 0.912993 16.1647L2.00935 15.0683C2.76625 14.3114 3.99121 14.3093 4.74601 15.0641ZM14.3791 5.70297C15.0306 6.35446 15.0306 7.41286 14.3791 8.06645C13.7256 8.71794 12.6693 8.71794 12.0157 8.06645C11.3642 7.41286 11.3642 6.35656 12.0157 5.70297C12.6693 5.05148 13.7277 5.05148 14.3791 5.70297Z" fill="#4AD6FD"/>
<path d="M12.0999 6.97027L13.1119 7.98229L9.56988 11.5265L8.55786 10.5144L12.0999 6.97027ZM18.8066 7.16002C18.8066 3.86464 16.1353 1.19334 12.84 1.19334V0C16.7953 0 20 3.20683 20 7.16002H18.8066ZM12.8379 2.50685C15.408 2.50685 17.4931 4.58992 17.4931 7.16213H16.42C16.42 5.18448 14.8176 3.58212 12.84 3.58212V2.50685H12.8379Z" fill="#4AD6FD"/>
</svg>
