<svg width="19" height="20" viewBox="0 0 19 20" fill="none" xmlns="http://www.w3.org/2000/svg">
<path d="M1.25112 0C0.654169 0 0 0.483414 0 1.08168V18.9185C0 19.5142 0.639565 20 1.23541 20C1.83087 20 2.48653 19.5142 2.48653 18.9183V1.08184C2.48653 0.483592 1.84681 0.000155595 1.25112 0.000155595V0ZM14.0916 1.48452C10.5832 1.48452 10.5832 0.046501 7.07505 0.046501C5.04991 0.046501 3.48612 0.991279 3.48612 0.991279L3.4715 11.7566C3.4715 11.7566 5.04991 10.8131 7.07508 10.8131C10.5833 10.8131 10.5833 12.2511 14.0916 12.2511C16.2864 12.2511 18.4911 11.0987 18.4911 11.0987V0.334487C18.4911 0.334487 16.2864 1.4845 14.0916 1.4845L14.0916 1.48452Z" fill="#4AD6FD"/>
</svg>
