<svg width="19" height="20" viewBox="0 0 19 20" fill="none" xmlns="http://www.w3.org/2000/svg">
<path d="M2.40569 17.3412C3.7589 17.3412 4.96175 16.4889 5.71353 15.3363C6.56536 16.4889 7.71791 17.3412 9.02136 17.3412C10.3746 17.3412 11.4768 16.4889 12.3292 15.3363C13.181 16.4889 14.3336 17.3412 15.637 17.3412L17.6414 10.8759C17.742 10.5752 17.6414 10.3243 17.6414 10.1242C17.6103 10.0171 17.5526 9.91957 17.4738 9.84071C17.3949 9.76186 17.2974 9.7042 17.1903 9.67308L15.6868 9.02136V4.46038C15.6868 3.30783 14.935 2.456 13.9831 2.456H11.5271L10.976 0H7.26684L6.61566 2.456H4.15967C3.20723 2.456 2.45545 3.40789 2.45545 4.46038V9.02136L0.95189 9.57248C0.75178 9.67308 0.551123 9.87319 0.500822 10.0235C0.400767 10.3243 0.400767 10.4746 0.500822 10.7753L2.40569 17.3412ZM4.10936 4.46038H13.9831V8.36963L9.02136 6.46531L4.05961 8.36963V4.46038H4.10936ZM12.4795 17.3412C10.274 19.0449 7.91856 18.9448 5.71353 17.2406C5.71353 17.2406 2.10498 19.9973 0 19.9973H0.95189C2.20504 19.9973 4.36032 19.4462 5.51287 18.7442C7.76821 20.0974 10.4746 20.0974 12.73 18.7442C13.8825 19.3959 16.0378 19.9973 17.2909 19.9973H18.2428C16.1881 20.0974 12.4795 17.3412 12.4795 17.3412Z" fill="#4AD6FD"/>
</svg>
