<svg width="16" height="20" viewBox="0 0 16 20" fill="none" xmlns="http://www.w3.org/2000/svg">
<path d="M7.89474 0C5.80092 0 3.79287 0.836753 2.31231 2.32618C0.831765 3.81561 0 5.83571 0 7.94208C0 11.5274 5.27819 17.5974 7.20677 19.685C7.29355 19.784 7.40028 19.8633 7.51987 19.9176C7.63946 19.9719 7.76917 20 7.90038 20C8.03158 20 8.16129 19.9719 8.28088 19.9176C8.40047 19.8633 8.5072 19.784 8.59398 19.685C10.5113 17.5974 15.7895 11.5274 15.7895 7.94208C15.7895 5.83571 14.9577 3.81561 13.4772 2.32618C11.9966 0.836753 9.98855 0 7.89474 0V0ZM7.89474 11.0962C7.22555 11.0962 6.57139 10.8966 6.01499 10.5226C5.45858 10.1486 5.02491 9.61699 4.76883 8.99503C4.51274 8.37308 4.44574 7.6887 4.57629 7.02843C4.70684 6.36817 5.02908 5.76168 5.50227 5.28566C5.97545 4.80964 6.57833 4.48546 7.23466 4.35413C7.89098 4.22279 8.57128 4.2902 9.18953 4.54782C9.80778 4.80544 10.3362 5.24171 10.708 5.80145C11.0798 6.3612 11.2782 7.01928 11.2782 7.69247C11.2782 8.5952 10.9217 9.46096 10.2872 10.0993C9.65268 10.7376 8.79209 11.0962 7.89474 11.0962Z" fill="#4AD6FD"/>
</svg>
