<svg width="22" height="25" viewBox="0 0 22 25" fill="none" xmlns="http://www.w3.org/2000/svg">
<path d="M19.8233 23.6087H2.17599C1.86304 23.6075 1.56336 23.4815 1.34284 23.2583C1.12232 23.0352 0.99901 22.7332 1.00001 22.4187V11.7097C1.00001 11.0518 1.5265 10.519 2.17674 10.519H3.94147V8.14058C3.94147 4.19536 7.10193 1 10.9996 1C14.8981 1 18.0585 4.19612 18.0585 8.13983V10.5198H19.8233C20.4735 10.5198 21 11.0518 21 11.7097V22.4187C21 23.0759 20.4735 23.6087 19.8233 23.6087ZM16.8818 8.13983C16.8818 4.85403 14.2493 2.18997 10.9996 2.18997C7.75142 2.18997 5.11745 4.85328 5.11745 8.13983V10.5198H16.8818V8.13983ZM19.8233 11.7097H2.17674V22.4187H19.8233V11.7097ZM10.9996 14.0889C11.3244 14.0889 11.5884 14.3557 11.5884 14.6843V19.4442C11.5884 19.772 11.3244 20.0395 10.9996 20.0395C10.9221 20.0392 10.8454 20.0236 10.7739 19.9935C10.7024 19.9634 10.6375 19.9195 10.5829 19.8642C10.5283 19.8089 10.4851 19.7434 10.4557 19.6713C10.4263 19.5992 10.4113 19.5221 10.4116 19.4442V14.6843C10.4116 14.3557 10.6749 14.0889 10.9996 14.0889Z" fill="white" stroke="white"/>
</svg>
