<svg width="22" height="23" viewBox="0 0 22 23" fill="none" xmlns="http://www.w3.org/2000/svg">
<path d="M10.7709 2.50903C11.9919 2.50903 13.1399 2.96528 14.0033 3.7936C14.8667 4.62191 15.3423 5.72327 15.3423 6.89466C15.3423 8.06604 14.8667 9.1674 14.0033 9.99572C13.1399 10.824 11.9919 11.2803 10.7709 11.2803C9.54991 11.2803 8.40191 10.824 7.53851 9.99572C6.67511 9.1674 6.19954 8.06628 6.19954 6.89466C6.19954 5.72303 6.67511 4.62191 7.53851 3.7936C8.40191 2.96528 9.54991 2.50903 10.7709 2.50903ZM10.7709 1C7.37753 1 4.6266 3.63915 4.6266 6.89466C4.6266 10.1502 7.37753 12.7893 10.7709 12.7893C14.1643 12.7893 16.9152 10.1502 16.9152 6.89466C16.9152 3.63915 14.1643 1 10.7709 1Z" fill="white"/>
<path d="M20.2137 21.7692C19.8013 21.7692 19.458 21.4636 19.4292 21.0687C19.0918 16.4438 15.4401 12.79 11.0002 12.79C6.56034 12.79 2.9089 16.4438 2.5712 21.0687C2.54245 21.4634 2.19935 21.7692 1.7867 21.7692C1.32956 21.7692 0.970243 21.3967 1.00195 20.9593C1.0833 19.8377 1.33448 18.7476 1.75155 17.7092C2.25219 16.4624 2.96985 15.3419 3.88437 14.3785C4.8038 13.4101 5.87611 12.649 7.07179 12.1161C8.31564 11.562 9.63716 11.281 11 11.281C12.3628 11.281 13.6843 11.562 14.9282 12.1161C16.1238 12.6488 17.1961 13.4099 18.1156 14.3785C19.0301 15.3419 19.7477 16.4626 20.2484 17.7092C20.6655 18.7476 20.9164 19.8377 20.998 20.9593C21.0302 21.3967 20.6709 21.7692 20.2137 21.7692Z" fill="white"/>
<path d="M10.7709 2.50903C11.9919 2.50903 13.1399 2.96528 14.0033 3.7936C14.8667 4.62191 15.3423 5.72327 15.3423 6.89466C15.3423 8.06604 14.8667 9.1674 14.0033 9.99572C13.1399 10.824 11.9919 11.2803 10.7709 11.2803C9.54991 11.2803 8.40191 10.824 7.53851 9.99572C6.67511 9.1674 6.19954 8.06628 6.19954 6.89466C6.19954 5.72303 6.67511 4.62191 7.53851 3.7936C8.40191 2.96528 9.54991 2.50903 10.7709 2.50903ZM10.7709 1C7.37753 1 4.6266 3.63915 4.6266 6.89466C4.6266 10.1502 7.37753 12.7893 10.7709 12.7893C14.1643 12.7893 16.9152 10.1502 16.9152 6.89466C16.9152 3.63915 14.1643 1 10.7709 1Z" stroke="white"/>
<path d="M20.2137 21.7692C19.8013 21.7692 19.458 21.4636 19.4292 21.0687C19.0918 16.4438 15.4401 12.79 11.0002 12.79C6.56034 12.79 2.9089 16.4438 2.5712 21.0687C2.54245 21.4634 2.19935 21.7692 1.7867 21.7692C1.32956 21.7692 0.970243 21.3967 1.00195 20.9593C1.0833 19.8377 1.33448 18.7476 1.75155 17.7092C2.25219 16.4624 2.96985 15.3419 3.88437 14.3785C4.8038 13.4101 5.87611 12.649 7.07179 12.1161C8.31564 11.562 9.63716 11.281 11 11.281C12.3628 11.281 13.6843 11.562 14.9282 12.1161C16.1238 12.6488 17.1961 13.4099 18.1156 14.3785C19.0301 15.3419 19.7477 16.4626 20.2484 17.7092C20.6655 18.7476 20.9164 19.8377 20.998 20.9593C21.0302 21.3967 20.6709 21.7692 20.2137 21.7692Z" stroke="white"/>
</svg>
